Coordinates
version=1
nRows=24
nColumns=24
inDegrees=yes

Units are S.I. units (second, meters, Newtons, ...)
Angles are in degrees.

endheader
time	pelvis_tilt	pelvis_list	pelvis_rotation	pelvis_tx	pelvis_ty	pelvis_tz	hip_flexion_r	hip_adduction_r	hip_rotation_r	knee_angle_r	ankle_angle_r	subtalar_angle_r	mtp_angle_r	hip_flexion_l	hip_adduction_l	hip_rotation_l	knee_angle_l	ankle_angle_l	subtalar_angle_l	mtp_angle_l	lumbar_extension	lumbar_bending	lumbar_rotation
      1.58350000	      4.66028713	      4.75189958	     -5.29393298	      0.43811780	      1.07358658	      0.30400006	      9.39151286	     -7.52163886	     -0.82813212	    -63.74733522	     -4.21616502	    -12.92210974	     20.42921291	      1.11503972	     11.03334966	     -1.60674900	     -4.33619372	     -1.59916521	     -5.02070818	      2.99281006	      0.13418086	     -2.74601640	      0.88081727
      1.58766667	      4.67332292	      4.72770962	     -5.18957990	      0.44295287	      1.07415949	      0.30401088	      9.95114079	     -7.41038208	     -0.65320017	    -63.54835120	     -4.05354443	    -12.98838868	     20.37294965	      0.67858915	     11.02785527	     -1.46608673	     -4.09023344	     -1.56684672	     -4.95182463	      2.96951887	      0.04873988	     -2.72361771	      0.82311215
      1.59183333	      4.76342691	      4.75436098	     -5.09241404	      0.44767355	      1.07475520	      0.30382064	     10.43716645	     -7.38780361	     -0.47564887	    -63.35203955	     -3.39853857	    -13.25662971	     20.19464929	      0.16089535	     11.10884105	     -1.20893450	     -3.85286617	     -1.40756482	     -4.88323524	      2.89345064	      0.00000896	     -2.69091320	      0.65919461
      1.59600000	      4.81726163	      4.73009071	     -4.95199664	      0.45243777	      1.07533651	      0.30377603	     10.91972168	     -7.28211919	     -0.32813749	    -63.07293574	     -2.87373795	    -13.43457737	     19.99907428	     -0.32225019	     11.10571727	     -0.98657196	     -3.62253325	     -1.26797116	     -4.83702176	      2.80733941	     -0.10329304	     -2.68124200	      0.47908853
      1.60016667	      4.85823763	      4.71719038	     -4.81476913	      0.45720230	      1.07585637	      0.30372425	     11.41115080	     -7.18915237	     -0.18230235	    -62.75690100	     -2.44640938	    -13.58204672	     19.82572915	     -0.78990884	     11.11422732	     -0.78441430	     -3.39135491	     -1.15381492	     -4.79342755	      2.73015121	     -0.17983529	     -2.67528431	      0.31980489
      1.60433333	      4.85604710	      4.71137054	     -4.62869244	      0.46190907	      1.07627976	      0.30358990	     11.93471167	     -7.10925296	     -0.08207467	    -62.44844945	     -1.71158901	    -13.22381106	     -2.80928407	     -1.20048564	     11.12476359	     -0.53729334	     -3.21675251	     -0.64450486	     -4.68377477	     -7.83880769	     -0.20338586	     -2.80306300	     -0.39913999
      1.60850000	      4.90227131	      4.70957930	     -4.50383234	      0.46666804	      1.07674247	      0.30354830	     12.40159826	     -7.02763917	      0.07370298	    -62.04716737	     -1.35858438	    -13.42255944	     -2.81562274	     -1.68228368	     11.14307499	     -0.32289864	     -2.95316789	     -0.66366629	     -4.58884742	     -7.83177946	     -0.26088601	     -2.75599467	     -0.41622414
      1.61266667	      4.94702855	      4.68523942	     -4.32922191	      0.47140775	      1.07719205	      0.30346910	     12.83912438	     -6.92550885	      0.17488198	    -61.59848546	     -0.88420765	    -13.65949059	     -2.82887587	     -2.15473965	     11.12842922	     -0.12746433	     -2.72843854	     -0.55233807	     -4.58796587	     -7.82146146	     -0.36873926	     -2.74102598	     -0.48150211
      1.61683333	      4.94440576	      4.68411198	     -4.21889097	      0.47612391	      1.07751402	      0.30352798	     13.34327104	     -6.82452872	      0.36863765	    -61.10770281	     -0.68525696	    -13.75295932	     -2.83355530	     -2.57319431	     11.12979541	      0.02088280	     -2.48617028	     -0.50697755	     -4.53990123	     -7.81815433	     -0.44281206	     -2.75080699	     -0.51896679
      1.62100000	      4.98734369	      4.71081452	     -4.11038674	      0.48084127	      1.07783363	      0.30341058	     13.79469682	     -6.78233160	      0.52157846	    -60.62222347	     -0.19613244	    -14.01065793	     -2.84559368	     -3.05620039	     11.18441588	      0.28107973	     -2.20754374	     -0.37365675	     -4.51395626	     -7.81254950	     -0.44159452	     -2.73264141	     -0.61333663
      1.62516667	      4.98893470	      4.71637529	     -3.96607053	      0.48557181	      1.07809452	      0.30336937	     14.25925714	     -6.70603027	      0.65489627	    -60.06607434	      0.17972379	    -14.20514172	     -2.86082252	     -3.48791659	     11.19379618	      0.49685107	     -1.95615357	     -0.26613363	     -4.51207171	     -7.80978025	     -0.48848565	     -2.74329437	     -0.72067610
      1.62933333	      4.99426751	      4.73577727	     -3.83123934	      0.49027915	      1.07830491	      0.30332157	     14.71647407	     -6.64626770	      0.79424389	    -59.48367356	      0.52050335	    -14.39714640	     -2.87911558	     -3.92014149	     11.21949923	      0.70842006	     -1.70757017	     -0.16632751	     -4.51691206	     -7.80906793	     -0.52445579	     -2.76848782	     -0.83633179
      1.63350000	      4.95295146	      4.74841041	     -3.70025191	      0.49498892	      1.07842608	      0.30337341	     15.20853340	     -6.56284896	      0.95474819	    -58.83906719	      0.70741878	    -14.49743894	     -2.88721931	     -4.29164445	     11.22305334	      0.82562123	     -1.47397581	     -0.11591400	     -4.49942629	     -7.80887802	     -0.59172982	     -2.80834262	     -0.88475150
      1.63766667	      4.94779191	      4.78113820	     -3.53239731	      0.49971101	      1.07855230	      0.30321848	     15.64497633	     -6.53798740	      1.02942121	    -58.19353686	      1.17721488	    -14.83808474	     -2.92361164	     -4.72151967	     11.26185418	      1.12442236	     -1.21243361	      0.04520521	     -4.56864207	     -7.81373379	     -0.55723578	     -2.82919902	     -1.08146550
      1.64183333	      4.91305319	      4.81414037	     -3.43430631	      0.50440322	      1.07858125	      0.30326129	     16.12001610	     -6.48077713	      1.21240564	    -57.49234315	      1.31838078	    -14.92645061	     -2.93402056	     -5.10379022	     11.29035741	      1.26240565	     -0.96098559	      0.08058865	     -4.53308879	     -7.81484312	     -0.60157293	     -2.87810101	     -1.13003687
      1.64600000	      4.88408368	      4.85519149	     -3.27703986	      0.50915171	      1.07859940	      0.30313778	     16.55761779	     -6.46286587	      1.28872050	    -56.76990161	      1.67307574	    -15.26844029	     -2.97760829	     -5.50913417	     11.33053176	      1.54670165	     -0.69781343	      0.22648559	     -4.60156612	     -7.82481510	     -0.53414893	     -2.91401836	     -1.31562825
      1.65016667	      4.85205974	      4.91078603	     -3.19568353	      0.51384064	      1.07852642	      0.30313745	     17.01313880	     -6.43792619	      1.46458403	    -56.01628014	      1.82302678	    -15.42153247	     -3.00249289	     -5.90234372	     11.38874872	      1.74220177	     -0.42402490	      0.28074499	     -4.58056476	     -7.83084058	     -0.51367314	     -2.96787603	     -1.40293813
      1.65433333	      4.78940415	      4.95863431	     -3.08126601	      0.51856962	      1.07840554	      0.30311948	     17.47787980	     -6.41181765	      1.58074994	    -55.22028667	      1.94140655	    -15.50472237	     -3.01165278	     -6.24632450	     11.43025956	      1.80725820	     -0.18065381	      0.32622970	     -4.56474447	     -7.83249375	     -0.57669483	     -3.03149141	     -1.43050528
      1.65850000	      4.74586452	      5.00555816	     -2.99093001	      0.52326411	      1.07826691	      0.30322614	     17.90618194	     -6.36721219	      1.76392748	    -54.38051373	      2.11386732	    -15.67440822	     -3.02645446	     -6.62316503	     11.45925702	      1.99447170	      0.06187973	      0.40269957	     -4.53278192	     -7.83479252	     -0.54807828	     -3.09680004	     -1.47536378
      1.66266667	      4.68139400	      5.05979920	     -2.78854293	      0.52800934	      1.07810174	      0.30301231	     18.31923683	     -6.39003928	      1.74969607	    -53.51552905	      2.31396958	    -16.18878827	     -3.09269693	     -6.98514228	     11.50012514	      2.32915221	      0.30219353	      0.62130039	     -4.62405766	     -7.85426727	     -0.42513765	     -3.12122963	     -1.68645919
      1.66683333	      4.64132364	      5.13785896	     -2.72761678	      0.53269820	      1.07785194	      0.30303646	     18.73926286	     -6.39338141	      1.90823930	    -52.63750268	      2.36295628	    -16.32350103	     -3.12302694	     -7.36367065	     11.57564835	      2.49486872	      0.57194136	      0.66333410	     -4.58910414	     -7.86410884	     -0.38493691	     -3.21804609	     -1.75877331
      1.67100000	      4.56445167	      5.20297028	     -2.62888319	      0.53741196	      1.07754368	      0.30304062	     19.17137998	     -6.39051832	      2.01316967	    -51.72109690	      2.44204816	    -16.40149736	     -3.13490219	     -7.68636522	     11.62864411	      2.55171527	      0.79972067	      0.71024700	     -4.57034520	     -7.86711281	     -0.43725400	     -3.29790640	     -1.78089852
      1.67516667	      4.53219695	      5.27367676	     -2.53425398	      0.54213380	      1.07727288	      0.30302281	     19.53555686	     -6.40188169	      2.11003580	    -50.76423327	      2.50879603	    -16.67784910	     -3.17325056	     -8.08262341	     11.68679296	      2.80529875	      1.06503480	      0.84861876	     -4.53166170	     -7.87748216	     -0.28770857	     -3.37061964	     -1.86074441
      1.67933333	      4.44850974	      5.34669255	     -2.41114981	      0.54686883	      1.07689545	      0.30297503	     19.93838863	     -6.42330825	      2.16233744	    -49.77998864	      2.50217912	    -16.94668295	     -3.22092504	     -8.40988089	     11.73968930	      3.00349733	      1.29448034	      0.98094311	     -4.51310126	     -7.89264574	     -0.22143780	     -3.44996965	     -1.95778534
